<?xml version="1.0" encoding="UTF-8" standalone="no"?>
<!-- Created with Inkscape (http://www.inkscape.org/) -->

<svg
   width="150mm"
   height="150mm"
   viewBox="0 0 150 150"
   version="1.1"
   id="svg503"
   sodipodi:docname="DI logo flat.svg"
   inkscape:version="1.1.2 (0a00cf5339, 2022-02-04)"
   xmlns:inkscape="http://www.inkscape.org/namespaces/inkscape"
   xmlns:sodipodi="http://sodipodi.sourceforge.net/DTD/sodipodi-0.dtd"
   xmlns="http://www.w3.org/2000/svg"
   xmlns:svg="http://www.w3.org/2000/svg">
  <defs
     id="defs30" />
  <sodipodi:namedview
     id="namedview28"
     pagecolor="#ffffff"
     bordercolor="#111111"
     borderopacity="1"
     inkscape:pageshadow="0"
     inkscape:pageopacity="0"
     inkscape:pagecheckerboard="1"
     inkscape:document-units="mm"
     showgrid="false"
     inkscape:zoom="3.07975"
     inkscape:cx="221.2842"
     inkscape:cy="268.85299"
     inkscape:window-width="3840"
     inkscape:window-height="2136"
     inkscape:window-x="0"
     inkscape:window-y="0"
     inkscape:window-maximized="1"
     inkscape:current-layer="svg503"
     inkscape:snap-global="true" />
  <path
     id="rect228"
     class="BoundingBox"
     style="visibility:hidden;fill:none;stroke-width:0.0111974;stroke:none"
     d="M 0,0 H 150.00004 V 150 H 0 Z" />
  <path
     fill="#000000"
     stroke="none"
     d="M 74.992639,149.99151 H 0 V 0 h 149.98527 v 149.99151 z"
     id="path230"
     style="stroke-width:0.0111974;fill-opacity:1;fill:#000000;stroke:none" />
  <path
     id="rect235"
     class="BoundingBox"
     style="visibility:hidden;fill:none;stroke-width:0.0138373;stroke:none"
     d="M 13.479382,14.074175 H 136.52065 V 131.62203 H 13.479382 Z" />
  <path
     id="path237"
     style="stroke:none;stroke-width:0.0522985;fill:#fd0d1f;fill-opacity:1"
     d="M 283.46484 53.193359 C 242.67208 53.193359 202.55884 63.496144 167.20508 82.951172 C 131.90362 102.4585 102.56437 130.49059 82.167969 164.27539 C 61.719273 198.00788 50.998047 236.34233 50.998047 275.30469 C 50.998047 308.34368 58.785258 340.90034 73.597656 370.61328 L 87.423828 370.61328 C 86.730283 367.39607 86.355359 364.0594 86.355469 360.63477 C 86.358772 338.71419 101.47385 319.68939 122.82617 314.73047 L 122.82617 293.95117 L 112.33984 293.95117 L 112.33984 255.31836 L 123.19727 255.31836 L 123.19727 247.69531 L 129.03516 243.91992 L 129.03516 158.39258 L 137.94336 158.39258 L 137.94336 243.91992 L 143.78125 247.69531 L 143.78125 255.31836 L 154.63867 255.31836 L 154.63867 293.95117 L 144.15039 293.95117 L 144.15039 314.72461 C 153.5683 316.91142 161.77023 321.83791 168 328.53906 L 168 302.94531 L 225.68359 289.86914 L 225.68359 245.17383 C 226.50887 242.20898 229.91833 239.41734 234.73438 237.6582 L 237.13867 111.98828 L 228.87305 113.21094 L 228.87305 108.82812 L 224.82031 108.82812 L 224.82031 103.38086 L 228.87305 102.31836 L 228.87305 98.435547 L 224.39258 97.511719 L 224.39258 94.537109 L 247.61328 86.21875 L 270.83594 94.537109 L 270.83594 97.511719 L 266.35547 98.435547 L 266.35547 102.31836 L 270.4082 103.38086 L 270.4082 108.82812 L 266.35547 108.82812 L 266.35547 113.21094 L 258.08984 111.98828 L 260.49414 237.6543 C 265.31271 239.41415 268.72116 242.2074 269.54492 245.17383 L 269.54492 257.50391 L 401.05273 298.15234 L 401.05273 277.34766 L 407.05859 277.34766 L 410.69531 164.35938 L 407.33398 164.35938 L 407.33398 160.98047 C 403.92549 159.57422 401.12307 157.6209 399.17578 155.26367 C 397.18847 152.85794 396.14258 150.13901 396.14258 147.36719 C 396.14258 144.59537 397.18847 141.87642 399.17578 139.4707 C 401.16313 137.06497 404.03897 135.07611 407.54297 133.66406 C 410.03477 132.68244 412.77265 132.03034 415.59766 131.74219 L 415.59766 121.66602 C 415.00915 121.52187 414.44065 121.33763 413.89844 121.11328 C 412.38175 120.538 411.07312 119.64905 410.23633 118.55078 C 409.34727 117.50482 408.87695 116.30248 408.87695 115.09961 C 408.87695 113.89675 409.34727 112.69202 410.23633 111.59375 C 411.07312 110.54778 412.38175 109.65927 413.89844 109.08398 C 414.44065 108.85961 415.00915 108.6754 415.59766 108.53125 L 415.59766 92.685547 C 410.42207 89.26603 405.14681 85.972106 399.67188 82.951172 C 364.3704 63.496144 324.25766 53.193359 283.46484 53.193359 z M 422.1875 97.201172 L 422.1875 108.53125 C 422.77427 108.67547 423.34398 108.85937 423.88672 109.08398 C 425.40337 109.65927 426.71009 110.54778 427.54688 111.59375 C 428.43592 112.69202 428.9082 113.89675 428.9082 115.09961 C 428.9082 116.30248 428.43592 117.50482 427.54688 118.55078 C 426.71009 119.64905 425.40337 120.538 423.88672 121.11328 C 423.34398 121.33788 422.77427 121.52179 422.1875 121.66602 L 422.1875 131.74219 C 425.01542 132.03033 427.76341 132.68244 430.29297 133.66406 C 433.74466 135.07611 436.62202 137.06497 438.60938 139.4707 C 440.59672 141.87642 441.64258 144.59537 441.64258 147.36719 C 441.64258 150.13901 440.59672 152.85794 438.60938 155.26367 C 436.65234 157.63271 433.83095 159.59418 430.44922 161.00195 L 430.44922 164.35938 L 427.08789 164.35938 L 430.72461 277.34766 L 436.73047 277.34766 L 436.73047 309.17969 L 465.02344 317.92383 L 465.02344 370.61328 L 493.33203 370.61328 C 508.14438 340.90038 515.93164 308.34362 515.93164 275.30469 C 515.93164 236.34233 505.21044 198.00788 484.76172 164.27539 C 468.88209 137.97217 447.52657 115.22226 422.1875 97.201172 z "
     transform="scale(0.26458333)" />
  <path
     id="rect3713"
     style="fill:#ffffff;fill-opacity:1;stroke:none;stroke-width:0.264583"
     d="m 79.254592,80.200271 v 1.662949 1.662946 l 2.870626,0.655775 v -1.619538 -0.04289 -1.620057 z m 6.653342,1.620573 v 1.563212 0.09974 1.563211 L 97.09433,87.603956 V 86.20766 85.94101 84.54523 Z m -19.01641,1.446424 -22.44049,4.810041 v 3.042192 l 22.44049,-4.810043 z m 34.043916,2.213301 v 1.338421 0.324527 1.338419 l 9.93841,2.271697 v -1.189591 -0.473358 -1.18959 z m -21.680848,3.413747 v 1.66243 1.663464 l 2.870626,0.463537 V 91.06369 91.020798 89.40126 Z m 6.653342,1.174604 v 1.563727 0.09922 1.563214 l 11.186396,1.807641 v -1.39578 -0.26665 -1.396299 z m -19.01641,0.165365 -22.44049,4.358388 v 3.041677 l 22.44049,-4.357873 z m 34.044436,2.488221 v 1.338418 0.324528 1.338421 l 9.93789,1.606103 v -1.189593 -0.473356 -1.18959 z" />
  <rect
     class="BoundingBox"
     stroke="none"
     fill="none"
     x="4.1993232"
     y="98.057854"
     width="141.60138"
     height="39.035023"
     id="rect242"
     style="visibility:hidden;stroke-width:0.0156334;stroke:none" />
  <path
     id="text286"
     style="font-size:0.166048px;stroke:none;stroke-width:0.0522985;fill:#fdffff;fill-opacity:1"
     class="SVGTextShape"
     d="M 351.88672 373.11523 C 342.88182 373.11523 334.87334 375.10798 327.86133 379.09375 C 320.92313 383.07952 315.4979 388.68843 311.58594 395.92188 C 307.74778 403.08151 305.83008 411.27562 305.83008 420.50195 C 305.83008 426.92348 307.19479 432.60742 309.92578 437.55273 C 312.65678 442.49805 316.53166 446.33541 321.55078 449.06641 C 326.56991 451.7974 332.36445 453.16211 338.93359 453.16211 C 348.0123 453.16211 356.05635 451.1338 363.06836 447.07422 C 370.08037 443.01463 375.54311 437.36821 379.45508 430.13477 C 383.36704 422.90132 385.32227 414.70721 385.32227 405.55469 C 385.32227 399.13316 383.95756 393.48674 381.22656 388.61523 C 378.49557 383.66992 374.58317 379.86812 369.49023 377.21094 C 364.47111 374.47994 358.60349 373.11523 351.88672 373.11523 z M 506.00391 373.11523 C 499.87762 373.11523 494.41488 374.14815 489.61719 376.21484 C 484.89331 378.20773 481.20406 381.1603 478.54688 385.07227 C 475.88969 388.91042 474.56055 393.52393 474.56055 398.91211 C 474.56055 403.04551 475.55594 406.51355 477.54883 409.31836 C 479.54172 412.04935 481.90377 414.22773 484.63477 415.85156 C 487.36576 417.40159 490.83576 419.06253 495.04297 420.83398 C 499.25018 422.60544 502.27583 424.15578 504.12109 425.48438 C 506.04017 426.81297 507 428.50947 507 430.57617 C 507 432.34763 506.3364 433.71429 505.00781 434.67383 C 503.75303 435.63337 502.05457 436.11328 499.91406 436.11328 C 497.33069 436.11328 495.41103 435.41217 494.15625 434.00977 C 492.90147 432.60736 492.38599 430.65019 492.60742 428.14062 L 469.68945 428.14062 C 469.54183 429.61684 469.4668 430.64975 469.4668 431.24023 C 469.4668 438.39987 472.19817 443.86261 477.66016 447.62695 C 483.19595 451.31749 490.4658 453.16211 499.4707 453.16211 C 505.81842 453.16211 511.31868 452.1292 515.96875 450.0625 C 520.61882 447.92199 524.19747 445.00694 526.70703 441.31641 C 529.21659 437.55206 530.47266 433.34538 530.47266 428.69531 C 530.47266 424.48811 529.47531 420.94502 527.48242 418.06641 C 525.48953 415.18779 523.08996 412.89882 520.28516 411.20117 C 517.55416 409.42972 514.0486 407.54757 509.76758 405.55469 C 505.7818 403.70942 502.82923 402.12351 500.91016 400.79492 C 499.06489 399.39252 498.14258 397.73158 498.14258 395.8125 C 498.14258 394.04104 498.73309 392.67438 499.91406 391.71484 C 501.16884 390.68149 502.79227 390.16602 504.78516 390.16602 C 506.70423 390.16602 508.21706 390.68149 509.32422 391.71484 C 510.43138 392.67438 510.98633 394.04104 510.98633 395.8125 C 510.98633 396.4768 510.94881 396.99227 510.875 397.36133 L 534.23633 397.36133 C 534.31014 396.77084 534.34766 395.88605 534.34766 394.70508 C 534.34766 390.27644 533.12911 386.43712 530.69336 383.18945 C 528.33142 379.94178 525.00953 377.46913 520.72852 375.77148 C 516.4475 374.00003 511.5397 373.11523 506.00391 373.11523 z M 46.421875 374.33398 L 32.582031 452.38867 L 63.472656 452.38867 C 71.665638 452.38867 79.119169 450.72773 85.835938 447.40625 C 92.626517 444.01096 98.199859 439.35993 102.55469 433.45508 C 106.98333 427.55023 109.86281 420.83337 111.19141 413.30469 C 111.70808 410.72131 111.9668 408.02746 111.9668 405.22266 C 111.9668 399.02256 110.60013 393.59734 107.86914 388.94727 C 105.13815 384.29719 101.15267 380.71855 95.912109 378.20898 C 90.671554 375.62561 84.472133 374.33398 77.3125 374.33398 L 46.421875 374.33398 z M 127.4668 374.33398 L 119.49414 419.61523 C 118.97747 422.19861 118.71875 424.81938 118.71875 427.47656 C 118.71875 435.74335 121.26644 442.09089 126.35938 446.51953 C 131.52612 450.94817 138.35357 453.16211 146.8418 453.16211 C 153.41094 453.16211 159.46225 451.94552 164.99805 449.50977 C 170.53385 447.0002 175.22239 443.23592 179.06055 438.2168 C 182.8987 433.19767 185.44444 426.9963 186.69922 419.61523 L 194.66992 374.33398 L 172.9707 374.33398 L 164.99805 419.61523 C 164.25994 423.74863 162.67403 426.95992 160.23828 429.24805 C 157.80253 431.53618 154.59124 432.67969 150.60547 432.67969 C 147.28399 432.67969 144.81133 431.86797 143.1875 430.24414 C 141.63748 428.62031 140.86328 426.33329 140.86328 423.38086 C 140.86328 422.19989 140.97388 420.94383 141.19531 419.61523 L 149.05469 374.33398 L 127.4668 374.33398 z M 206.62695 374.33398 L 192.78906 452.38867 L 231.42773 452.38867 C 239.76834 452.38867 246.56023 450.50653 251.80078 446.74219 C 257.04134 442.97784 260.21511 437.77382 261.32227 431.13086 C 261.5437 429.87608 261.6543 428.65753 261.6543 427.47656 C 261.6543 423.71222 260.58387 420.46537 258.44336 417.73438 C 256.37666 415.00338 253.46161 413.19432 249.69727 412.30859 C 253.83066 411.20143 257.37179 409.13561 260.32422 406.10938 C 263.35046 403.00933 265.27011 399.17001 266.08203 394.59375 C 266.30346 393.26516 266.41406 391.97353 266.41406 390.71875 C 266.41406 385.47819 264.45884 381.4552 260.54688 378.65039 C 256.63491 375.77178 251.1366 374.33398 244.05078 374.33398 L 206.62695 374.33398 z M 280.91797 374.33398 L 267.07812 452.38867 L 288.89062 452.38867 L 302.61914 374.33398 L 280.91797 374.33398 z M 401.82031 374.33398 L 393.84766 419.61523 C 393.33098 422.19861 393.07227 424.81938 393.07227 427.47656 C 393.07227 435.74335 395.61996 442.09089 400.71289 446.51953 C 405.87964 450.94817 412.70709 453.16211 421.19531 453.16211 C 427.76446 453.16211 433.81576 451.94552 439.35156 449.50977 C 444.88736 447.0002 449.57591 443.23592 453.41406 438.2168 C 457.25222 433.19767 459.79795 426.9963 461.05273 419.61523 L 469.02344 374.33398 L 447.32422 374.33398 L 439.35156 419.61523 C 438.61346 423.74863 437.02755 426.95992 434.5918 429.24805 C 432.15605 431.53618 428.94476 432.67969 424.95898 432.67969 C 421.63751 432.67969 419.16485 431.86797 417.54102 430.24414 C 415.99099 428.62031 415.2168 426.33329 415.2168 423.38086 C 415.2168 422.19989 415.3274 420.94383 415.54883 419.61523 L 423.41016 374.33398 L 401.82031 374.33398 z M 225.33789 391.60547 L 236.29883 391.60547 C 240.9489 391.60547 243.27539 393.37701 243.27539 396.91992 C 243.27539 397.65803 243.23787 398.21102 243.16406 398.58008 C 242.35215 403.15634 239.25146 405.44336 233.86328 405.44336 L 222.90234 405.44336 L 225.33789 391.60547 z M 64.912109 393.1543 L 72.330078 393.1543 C 77.792066 393.1543 82.036264 394.48344 85.0625 397.14062 C 88.088736 399.79781 89.601562 403.59961 89.601562 408.54492 C 89.601562 410.24257 89.453446 411.82847 89.158203 413.30469 C 87.977233 419.6524 85.283379 424.59771 81.076172 428.14062 C 76.868965 431.60973 71.591856 433.34375 65.244141 433.34375 L 57.714844 433.34375 L 64.912109 393.1543 z M 349.11914 393.1543 C 353.84302 393.1543 357.45919 394.48344 359.96875 397.14062 C 362.55212 399.724 363.84375 403.37768 363.84375 408.10156 C 363.84375 412.5302 362.95896 416.6638 361.1875 420.50195 C 359.48986 424.2663 356.97968 427.29195 353.6582 429.58008 C 350.41053 431.86821 346.60873 433.01172 342.25391 433.01172 C 337.45621 433.01172 333.76697 431.68453 331.18359 429.02734 C 328.60022 426.29635 327.30859 422.60515 327.30859 417.95508 C 327.30859 413.45263 328.19339 409.31903 329.96484 405.55469 C 331.7363 401.79034 334.28399 398.80221 337.60547 396.58789 C 340.92695 394.29976 344.76431 393.1543 349.11914 393.1543 z M 220.13477 420.72266 L 232.64648 420.72266 C 235.00843 420.72266 236.77997 421.24009 237.96094 422.27344 C 239.21572 423.23298 239.8418 424.6352 239.8418 426.48047 C 239.8418 427.14476 239.80623 427.6622 239.73242 428.03125 C 238.84669 432.68132 235.70849 435.00586 230.32031 435.00586 L 217.69922 435.00586 L 220.13477 420.72266 z M 272.51758 462.83398 C 268.94367 462.83398 265.75588 463.43692 262.95703 464.64258 C 260.20125 465.80518 258.04818 467.52646 256.49805 469.80859 C 254.94792 472.04767 254.17383 474.73949 254.17383 477.88281 C 254.17383 480.29412 254.75537 482.31883 255.91797 483.95508 C 257.08057 485.54827 258.45759 486.81832 260.05078 487.76562 C 261.64397 488.66987 263.66868 489.63846 266.12305 490.67188 C 268.57742 491.70529 270.34344 492.6097 271.41992 493.38477 C 272.53946 494.15983 273.09766 495.14981 273.09766 496.35547 C 273.09766 497.38889 272.71061 498.18632 271.93555 498.74609 C 271.20354 499.30586 270.21356 499.58398 268.96484 499.58398 C 267.45777 499.58398 266.33747 499.17555 265.60547 498.35742 C 264.87346 497.5393 264.57199 496.3976 264.70117 494.93359 L 251.33203 494.93359 C 251.24591 495.79478 251.20312 496.39771 251.20312 496.74219 C 251.20312 500.91892 252.79604 504.10672 255.98242 506.30273 C 259.21186 508.45569 263.45382 509.53125 268.70703 509.53125 C 272.41012 509.53125 275.61735 508.92831 278.33008 507.72266 C 281.0428 506.47394 283.13169 504.77405 284.5957 502.62109 C 286.05971 500.42508 286.79102 497.97054 286.79102 495.25781 C 286.79102 492.80344 286.20947 490.73595 285.04688 489.05664 C 283.88428 487.37733 282.48586 486.04309 280.84961 485.05273 C 279.25642 484.01931 277.21032 482.92041 274.71289 481.75781 C 272.3877 480.68133 270.66446 479.75553 269.54492 478.98047 C 268.46844 478.16234 267.93164 477.19376 267.93164 476.07422 C 267.93164 475.0408 268.2759 474.24532 268.96484 473.68555 C 269.69685 473.08272 270.64404 472.78125 271.80664 472.78125 C 272.92618 472.78125 273.80919 473.08272 274.45508 473.68555 C 275.10097 474.24532 275.42383 475.0408 275.42383 476.07422 C 275.42383 476.46175 275.40243 476.76322 275.35938 476.97852 L 288.98633 476.97852 C 289.02939 476.63404 289.05078 476.11668 289.05078 475.42773 C 289.05078 472.84419 288.34087 470.60554 286.91992 468.71094 C 285.54203 466.81633 283.60485 465.37513 281.10742 464.38477 C 278.60999 463.35135 275.74701 462.83398 272.51758 462.83398 z M 515.24023 462.83398 C 511.66632 462.83398 508.48049 463.43692 505.68164 464.64258 C 502.92586 465.80518 500.77279 467.52646 499.22266 469.80859 C 497.67253 472.04767 496.89648 474.73949 496.89648 477.88281 C 496.89648 480.29412 497.47803 482.31883 498.64062 483.95508 C 499.80322 485.54827 501.1822 486.81832 502.77539 487.76562 C 504.36858 488.66987 506.39133 489.63846 508.8457 490.67188 C 511.30007 491.70529 513.0661 492.6097 514.14258 493.38477 C 515.26212 494.15983 515.82227 495.14981 515.82227 496.35547 C 515.82227 497.38889 515.43327 498.18632 514.6582 498.74609 C 513.9262 499.30586 512.93622 499.58398 511.6875 499.58398 C 510.18043 499.58398 509.06208 499.17555 508.33008 498.35742 C 507.59807 497.5393 507.2966 496.3976 507.42578 494.93359 L 494.05469 494.93359 C 493.96857 495.79478 493.92578 496.39771 493.92578 496.74219 C 493.92578 500.91892 495.5187 504.10672 498.70508 506.30273 C 501.93451 508.45569 506.17647 509.53125 511.42969 509.53125 C 515.13277 509.53125 518.34001 508.92831 521.05273 507.72266 C 523.76546 506.47394 525.85435 504.77405 527.31836 502.62109 C 528.78237 500.42508 529.51367 497.97054 529.51367 495.25781 C 529.51367 492.80344 528.93408 490.73595 527.77148 489.05664 C 526.60889 487.37733 525.20851 486.04309 523.57227 485.05273 C 521.97908 484.01931 519.93298 482.92041 517.43555 481.75781 C 515.11035 480.68133 513.38907 479.75553 512.26953 478.98047 C 511.19305 478.16234 510.6543 477.19376 510.6543 476.07422 C 510.6543 475.0408 510.99855 474.24532 511.6875 473.68555 C 512.41951 473.08272 513.3667 472.78125 514.5293 472.78125 C 515.64883 472.78125 516.53185 473.08272 517.17773 473.68555 C 517.82362 474.24532 518.14648 475.0408 518.14648 476.07422 C 518.14648 476.46175 518.12509 476.76322 518.08203 476.97852 L 531.71094 476.97852 C 531.754 476.63404 531.77539 476.11668 531.77539 475.42773 C 531.77539 472.84419 531.06548 470.60554 529.64453 468.71094 C 528.26664 466.81633 526.32751 465.37513 523.83008 464.38477 C 521.33265 463.35135 518.46967 462.83398 515.24023 462.83398 z M 43.228516 463.54492 L 35.154297 509.08008 L 47.878906 509.08008 L 55.886719 463.54492 L 43.228516 463.54492 z M 76.103516 463.54492 L 68.029297 509.08008 L 80.753906 509.08008 L 85.275391 483.63086 L 97.546875 509.08008 L 110.27148 509.08008 L 118.2793 463.54492 L 105.62109 463.54492 L 101.09961 489.31445 L 88.761719 463.54492 L 76.103516 463.54492 z M 138.49609 463.54492 L 130.42188 509.08008 L 148.44141 509.08008 C 153.22097 509.08008 157.5699 508.10954 161.48828 506.17188 C 165.44972 504.19115 168.7017 501.47989 171.24219 498.03516 C 173.82574 494.59042 175.50423 490.67133 176.2793 486.2793 C 176.58071 484.77223 176.73242 483.2007 176.73242 481.56445 C 176.73242 477.94748 175.93499 474.78304 174.3418 472.07031 C 172.74861 469.35759 170.42439 467.2687 167.36719 465.80469 C 164.30999 464.29762 160.69236 463.54492 156.51562 463.54492 L 138.49609 463.54492 z M 198.75586 463.54492 L 194.10547 489.96094 C 193.80405 491.46801 193.6543 492.99675 193.6543 494.54688 C 193.6543 499.3695 195.14025 503.0727 198.11133 505.65625 C 201.12547 508.2398 205.10874 509.53125 210.06055 509.53125 C 213.89281 509.53125 217.42291 508.82134 220.65234 507.40039 C 223.88178 505.93638 226.61639 503.74052 228.85547 500.8125 C 231.09454 497.88448 232.58049 494.26685 233.3125 489.96094 L 237.96289 463.54492 L 225.30273 463.54492 L 220.65234 489.96094 C 220.22175 492.37225 219.29595 494.24524 217.875 495.58008 C 216.45405 496.91491 214.58105 497.58203 212.25586 497.58203 C 210.3182 497.58203 208.87504 497.10941 207.92773 496.16211 C 207.02349 495.21481 206.57227 493.87862 206.57227 492.15625 C 206.57227 491.4673 206.63645 490.736 206.76562 489.96094 L 211.35156 463.54492 L 198.75586 463.54492 z M 309.20312 463.54492 L 307.39453 473.62109 L 319.4082 473.62109 L 313.14258 509.08008 L 325.86719 509.08008 L 332.13281 473.62109 L 344.21094 473.62109 L 346.01953 463.54492 L 309.20312 463.54492 z M 363.7168 463.54492 L 355.64258 509.08008 L 368.36719 509.08008 L 371.33789 492.28711 L 372.69336 492.28711 L 378.76562 509.08008 L 392.8457 509.08008 L 385.74023 491.31836 C 389.22803 490.328 392.02682 488.66894 394.13672 486.34375 C 396.24662 483.9755 397.55946 481.24088 398.07617 478.14062 C 398.24841 477.27944 398.33594 476.31085 398.33594 475.23438 C 398.33594 471.70352 397.08727 468.88334 394.58984 466.77344 C 392.09241 464.62048 388.45339 463.54492 383.67383 463.54492 L 363.7168 463.54492 z M 419.39062 463.54492 L 411.31836 509.08008 L 424.04102 509.08008 L 432.05078 463.54492 L 419.39062 463.54492 z M 452.26758 463.54492 L 444.19336 509.08008 L 473.38672 509.08008 L 475.13086 499.00391 L 458.66016 499.00391 L 460.14648 490.73633 L 474.67969 490.73633 L 476.42383 481.11328 L 461.89062 481.11328 L 463.18164 473.55469 L 479.65234 473.55469 L 481.39648 463.54492 L 452.26758 463.54492 z M 374.50195 474.07227 L 380.76758 474.07227 C 382.23159 474.07227 383.32854 474.39513 384.06055 475.04102 C 384.83561 475.6869 385.22461 476.59131 385.22461 477.75391 C 385.22461 477.9692 385.18182 478.33485 385.0957 478.85156 C 384.49288 482.03794 382.51096 483.63086 379.15234 483.63086 L 372.88672 483.63086 L 374.50195 474.07227 z M 149.28125 474.52344 L 153.60938 474.52344 C 156.79575 474.52344 159.27168 475.29948 161.03711 476.84961 C 162.80253 478.39974 163.68555 480.61699 163.68555 483.50195 C 163.68555 484.49231 163.59997 485.41811 163.42773 486.2793 C 162.73879 489.98238 161.16726 492.86675 158.71289 494.93359 C 156.25852 496.95737 153.17965 497.9707 149.47656 497.9707 L 145.08398 497.9707 L 149.28125 474.52344 z "
     transform="scale(0.26458333)" />
</svg>
